<svg xmlns="http://www.w3.org/2000/svg" width="70" height="80" fill="none" xmlns:v="https://vecta.io/nano"><g clip-path="url(#A)"><path d="M64.553 71.41L70.93 0H0l.083.927L6.367 71.42l.053.587L35.197 80h.453l28.843-8 .053-.587.007-.003zM35.527 15.597h20.61l-.62 7.2-20.333 9.04.34 1.627h19.08l-2.197 25.17-16.953 4.7-16.947-4.693-1.067-12.053h6.977l.56 6.11.053.593 10.283 2.733h.443l10.17-2.827.05-.59.96-11.287.077-.92H16.857l-.633-7.243 21.03-9.003-.333-1.633h-21.6l-.617-6.933h20.8l.023.01z" fill="#97edaa"/></g><defs><clipPath id="A"><path fill="#fff" d="M0 0h70v80H0z"/></clipPath></defs></svg>