<svg xmlns="http://www.w3.org/2000/svg" width="56" height="56" fill="none" stroke="#97edaa" stroke-width="2" stroke-linejoin="round" xmlns:v="https://vecta.io/nano"><path d="M11.667 12.833c0-2.166.86-4.243 2.392-5.775s3.609-2.392 5.775-2.392H28V21h-8.167c-2.166 0-4.243-.86-5.775-2.392s-2.392-3.609-2.392-5.775z"/><path d="M28 4.667h8.167c1.072 0 2.134.211 3.125.622a8.17 8.17 0 0 1 2.65 1.77c.758.758 1.36 1.659 1.77 2.649s.622 2.053.622 3.125-.211 2.134-.622 3.125-1.012 1.891-1.77 2.649a8.17 8.17 0 0 1-2.65 1.77c-.991.41-2.053.622-3.125.622H28V4.667z"/><path d="M28 29.167c0-1.072.211-2.134.622-3.125s1.012-1.891 1.77-2.649a8.17 8.17 0 0 1 2.649-1.77c.99-.41 2.053-.623 3.126-.623s2.134.211 3.125.622a8.17 8.17 0 0 1 4.42 4.419 8.17 8.17 0 0 1 .622 3.125c0 1.072-.211 2.134-.622 3.125a8.17 8.17 0 0 1-4.42 4.42c-.991.41-2.053.622-3.125.622s-2.134-.211-3.125-.622-1.891-1.012-2.649-1.77a8.17 8.17 0 0 1-1.77-2.65c-.41-.991-.622-2.053-.622-3.125h0zM11.667 45.5c0-2.166.86-4.243 2.392-5.775s3.609-2.392 5.775-2.392H28V45.5c0 2.166-.86 4.243-2.392 5.775s-3.609 2.392-5.775 2.392-4.243-.86-5.775-2.392-2.392-3.609-2.392-5.775z"/><path d="M11.667 29.167c0-2.166.86-4.243 2.392-5.775S17.668 21 19.833 21H28v16.333h-8.167c-2.166 0-4.243-.86-5.775-2.392s-2.392-3.609-2.392-5.775z"/></svg>