<svg xmlns="http://www.w3.org/2000/svg" width="32" height="32" fill="none" stroke="#97edaa" stroke-width="2" stroke-linejoin="round" xmlns:v="https://vecta.io/nano"><path d="M22.667 2.667H9.333a6.67 6.67 0 0 0-6.667 6.667v13.333a6.67 6.67 0 0 0 6.667 6.667h13.333a6.67 6.67 0 0 0 6.667-6.667V9.333a6.67 6.67 0 0 0-6.667-6.667z"/><path d="M21.333 15.16c.165 1.11-.025 2.243-.542 3.239s-1.334 1.803-2.336 2.307-2.138.68-3.245.502-2.131-.701-2.924-1.494-1.316-1.816-1.494-2.924-.003-2.243.502-3.245 1.312-1.819 2.308-2.336 2.129-.706 3.239-.542c1.132.168 2.18.695 2.989 1.504s1.337 1.857 1.504 2.989z"/><path d="M23.333 8.667h.013" stroke-linecap="round"/></svg>