<svg xmlns="http://www.w3.org/2000/svg" width="80" height="49" fill="none" xmlns:v="https://vecta.io/nano"><g clip-path="url(#A)"><path d="M18.877 12.588h15.089v1.199H20.26v9.026h12.888v1.199H20.26v9.91h13.863v1.199H18.877V12.588zm16.441 0h1.603l7.104 9.91 7.261-9.91L61.163 0 44.936 23.539l8.362 11.582h-1.666l-7.607-10.541-7.639 10.541h-1.635l8.425-11.582-7.859-10.951h0zm18.578 1.199v-1.2H71.09v1.199h-7.922v21.334h-1.383V13.787h-7.89zM0 12.588h1.729L25.57 48.263l-9.852-13.142L1.446 14.292l-.063 20.83H0V12.588zM70.951 33.56c-.283 0-.494-.219-.494-.502s.212-.502.494-.502.495.219.495.502-.209.502-.495.502zm1.359-1.32h.74c.01.401.303.67.733.67.481 0 .754-.29.754-.832v-3.436h.754v3.439c0 .977-.565 1.54-1.501 1.54-.878 0-1.48-.546-1.48-1.381h0zm3.966-.044h.747c.064.461.515.754 1.164.754.605 0 1.05-.313 1.05-.744 0-.37-.283-.593-.925-.744l-.626-.152c-.878-.206-1.278-.63-1.278-1.344 0-.866.706-1.442 1.766-1.442.986 0 1.706.576 1.749 1.395h-.734c-.071-.448-.461-.728-1.026-.728-.595 0-.992.286-.992.724 0 .347.255.546.888.694l.535.131c.996.232 1.406.637 1.406 1.368 0 .93-.72 1.513-1.87 1.513-1.077 0-1.8-.556-1.854-1.425h0z" fill="#97edaa"/></g><defs><clipPath id="A"><path fill="#fff" d="M0 0h80v48.281H0z"/></clipPath></defs></svg>