<svg xmlns="http://www.w3.org/2000/svg" width="33" height="32" fill="none" xmlns:v="https://vecta.io/nano"><path d="M29.833 22.56v4a2.67 2.67 0 0 1-.223 1.079c-.149.34-.367.646-.641.897s-.597.442-.948.561-.725.163-1.094.13c-4.103-.446-8.044-1.848-11.507-4.093a26 26 0 0 1-8-8c-2.253-3.478-3.656-7.439-4.093-11.56-.033-.369.01-.74.129-1.091s.308-.673.558-.947.553-.492.892-.641.705-.227 1.075-.227h4c.647-.006 1.274.223 1.765.645s.811 1.008.902 1.649a17.12 17.12 0 0 0 .933 3.747c.179.477.218.996.112 1.495s-.353.956-.712 1.319l-1.693 1.693c1.898 3.338 4.662 6.102 8 8l1.693-1.693c.363-.358.82-.605 1.319-.712s1.017-.067 1.494.112a17.12 17.12 0 0 0 3.747.933c.648.091 1.239.418 1.662.917s.647 1.136.631 1.79z" stroke="#97edaa" stroke-width="2" stroke-linejoin="round"/></svg>