<svg xmlns="http://www.w3.org/2000/svg" width="80" height="80" fill="#97edaa" xmlns:v="https://vecta.io/nano"><path d="M80 38.963c0-5.3-6.637-10.323-16.813-13.437 2.35-10.37 1.307-18.623-3.293-21.267a7.15 7.15 0 0 0-3.653-.91v3.633c.75 0 1.353.15 1.86.427 2.217 1.273 3.18 6.113 2.43 12.343-.18 1.533-.473 3.147-.833 4.793-3.408-.821-6.867-1.415-10.353-1.777a79.52 79.52 0 0 0-6.783-8.153c5.317-4.94 10.307-7.647 13.7-7.647V3.333c-4.487 0-10.357 3.197-16.293 8.74C34.033 6.567 28.16 3.4 23.677 3.4v3.633c3.377 0 8.383 2.693 13.7 7.6a77.44 77.44 0 0 0-6.737 8.137c-3.494.358-6.959.957-10.37 1.793a48.94 48.94 0 0 1-.85-4.727c-.767-6.233.18-11.073 2.383-12.36.487-.293 1.123-.427 1.873-.427V3.417c-1.367 0-2.61.293-3.683.91-4.583 2.643-5.61 10.877-3.247 21.217C6.603 28.677 0 33.68 0 38.963c0 5.3 6.637 10.323 16.813 13.433-2.35 10.373-1.307 18.627 3.293 21.267 1.06.62 2.3.913 3.667.913 4.487 0 10.357-3.197 16.293-8.74C46 71.347 51.87 74.51 56.357 74.51a7.27 7.27 0 0 0 3.683-.913c4.583-2.64 5.61-10.873 3.247-21.213C73.397 49.27 80 44.247 80 38.963zM58.767 28.087a73.12 73.12 0 0 1-2.2 6.44 88.18 88.18 0 0 0-4.483-7.73c2.317.343 4.55.767 6.687 1.29h-.003zM51.3 45.453c-1.27 2.2-2.577 4.29-3.93 6.23a84.84 84.84 0 0 1-14.707.017 84.86 84.86 0 0 1-7.337-12.687 86.88 86.88 0 0 1 7.307-12.733 84.85 84.85 0 0 1 14.703-.02c1.353 1.94 2.677 4.013 3.947 6.2a83.63 83.63 0 0 1 3.393 6.487 91.49 91.49 0 0 1-3.377 6.507zm5.267-2.12a69.05 69.05 0 0 1 2.25 6.49c-2.133.523-4.387.963-6.717 1.303a90.48 90.48 0 0 0 4.467-7.793zm-16.533 17.4c-1.517-1.567-3.033-3.31-4.533-5.22a98.22 98.22 0 0 0 4.483.117 81.08 81.08 0 0 0 4.533-.117 63.51 63.51 0 0 1-4.483 5.22zM27.9 51.127c-2.247-.326-4.479-.755-6.687-1.287a73.66 73.66 0 0 1 2.2-6.44c.67 1.3 1.373 2.607 2.14 3.913S27.1 49.89 27.9 51.127zm12.05-33.933c1.517 1.567 3.033 3.31 4.533 5.22A98.63 98.63 0 0 0 40 22.297a80.98 80.98 0 0 0-4.533.117 63.37 63.37 0 0 1 4.483-5.22zM27.883 26.8a90.2 90.2 0 0 0-4.467 7.777 69.84 69.84 0 0 1-2.25-6.49 77.55 77.55 0 0 1 6.717-1.287zM13.127 47.213c-5.773-2.46-9.507-5.69-9.507-8.25s3.733-5.807 9.507-8.25c1.4-.603 2.933-1.143 4.517-1.647.93 3.193 2.153 6.52 3.667 9.93a77.23 77.23 0 0 0-3.617 9.88 49.61 49.61 0 0 1-4.567-1.663zm8.773 23.3c-2.217-1.267-3.18-6.113-2.43-12.34.18-1.533.473-3.15.833-4.797 3.193.783 6.683 1.387 10.353 1.78 2.077 2.866 4.343 5.59 6.783 8.153-5.317 4.94-10.307 7.647-13.7 7.647a3.89 3.89 0 0 1-1.84-.44v-.003zM60.58 58.09c.767 6.23-.18 11.073-2.383 12.36-.487.293-1.123.423-1.873.423-3.377 0-8.383-2.69-13.7-7.6a76.77 76.77 0 0 0 6.737-8.133 76.15 76.15 0 0 0 10.37-1.793c.377 1.647.667 3.227.85 4.743zm6.277-10.877c-1.4.603-2.933 1.143-4.517 1.647-.997-3.389-2.222-6.706-3.667-9.93 1.5-3.39 2.703-6.7 3.617-9.88a50.88 50.88 0 0 1 4.583 1.663c5.773 2.46 9.507 5.69 9.507 8.25-.017 2.56-3.75 5.807-9.523 8.25zm-26.874-.797a7.45 7.45 0 0 0 5.27-2.183c1.397-1.398 2.183-3.294 2.183-5.27s-.785-3.872-2.183-5.27-3.294-2.183-5.27-2.183-3.872.785-5.27 2.183-2.183 3.294-2.183 5.27a7.45 7.45 0 0 0 2.183 5.27c1.398 1.397 3.294 2.183 5.27 2.183z"/></svg>