<svg xmlns="http://www.w3.org/2000/svg" width="80" height="80" fill="none" xmlns:v="https://vecta.io/nano"><path d="M20 31.979c2.666-10.694 9.334-16.042 20-16.042 16 0 18 12.031 26 14.036 5.334 1.337 10-.668 14-6.016C77.334 34.652 70.666 40 60 40c-16 0-18-12.031-26-14.036-5.334-1.337-10 .668-14 6.016zM0 56.042C2.666 45.348 9.334 40 20 40c16 0 18 12.031 26 14.036 5.334 1.337 10-.668 14-6.016-2.666 10.694-9.334 16.042-20 16.042-16 0-18-12.031-26-14.036-5.334-1.337-10 .668-14 6.016z" fill="#97edaa"/></svg>